<?xml version="1.0" encoding="utf-8"?>
<!-- Generator: Adobe Illustrator 23.1.0, SVG Export Plug-In . SVG Version: 6.00 Build 0)  -->
<svg version="1.1" id="图层_1" xmlns="http://www.w3.org/2000/svg" xmlns:xlink="http://www.w3.org/1999/xlink" x="0px" y="0px"
	 viewBox="0 0 300 300" style="enable-background:new 0 0 300 300;" xml:space="preserve">
<style type="text/css">
	.st0{fill:#0074C1;}
	.st1{fill:#FFFFFF;}
</style>
<path class="st0" d="M286.4,299.5H14.6c-7.8,0-14.1-6.3-14.1-14.1V13.6c0-7.8,6.3-14.1,14.1-14.1h271.8c7.8,0,14.1,6.3,14.1,14.1
	v271.8C300.5,293.2,294.2,299.5,286.4,299.5z"/>
<path class="st1" d="M258.7,105.3H94.7c-7.6,0-13.7,6.1-13.7,13.7v136.7c0,7.6,6.1,13.7,13.7,13.7h164.1c7.6,0,13.7-6.1,13.7-13.7
	V119C272.4,111.5,266.3,105.3,258.7,105.3z M101.5,119H252c3.7,0,6.8,3,6.8,6.8v83.4l-45-47.2c-1.3-1.3-3.1-2-4.9-2
	c-1.8,0-3.5,0.6-4.9,2l-49.2,51.2l-22.2-11.1c-1.1-0.7-2.5-1.1-3.8-1.1c-1.8,0-3.5,0.6-4.8,2l-29.4,29.4V125.8
	C94.7,122.1,97.7,119,101.5,119z M258.7,249c0,3.7-3,6.8-6.8,6.8H101.5c-2.9,0-5.4-1.9-6.3-4.5l35.2-35.2l21.9,10.9
	c1.1,0.9,2.6,1.3,4.1,1.3c2.1,0,4.1-0.9,5.5-2.8l47.7-49.7l49.3,50.5V249H258.7z"/>
<path class="st1" d="M147.5,197.7c12.2,0,22.1-9.9,22.1-22.1s-9.9-22.1-22.1-22.1s-22.1,9.9-22.1,22.1S135.2,197.7,147.5,197.7z
	 M147.5,168.1c4,0,7.3,3.3,7.3,7.3s-3.3,7.3-7.3,7.3s-7.3-3.3-7.3-7.3S143.3,168.1,147.5,168.1z"/>
</svg>
